{"title":"The Greatest Showman 2017 HDCAM Full English AAC x264 - EiE","magnet":"magnet:?xt=urn:btih:96d4a425c03a79f63a759bf81f31b8b93f0112c6&dn=The+Greatest+Showman+2017+HDCAM+Full+English+AAC+x264+-+EiE&tr=udp%3A%2F%2Ftracker.leechers-paradise.org%3A6969&tr=udp%3A%2F%2Fzer0day.ch%3A1337&tr=udp%3A%2F%2Fopen.demonii.com%3A1337&tr=udp%3A%2F%2Ftracker.coppersurfer.tk%3A6969&tr=udp%3A%2F%2Fexodus.desync.com%3A6969","uploader":"samcode4u","categoryP":"video","categoryS":"movies","size":"682359169","seeders":"2","leechers":"115","description":"The Greatest Showman 2017 HDCAM Full English AAC x264 - EiE\r\n <a href=\"\nhttps://www.imdb.com/title/tt1485796/\" rel=\"nofollow\" target=\"_NEW\">\nhttps://www.imdb.com/title/tt1485796/</a>\r\n\r\n\r\nScreenshots:\r\n <a href=\"\nhttps://lensdump.com/i/lK31q\" rel=\"nofollow\" target=\"_NEW\">\nhttps://lensdump.com/i/lK31q</a>\r\n <a href=\"\nhttps://lensdump.com/i/lK4pA\" rel=\"nofollow\" target=\"_NEW\">\nhttps://lensdump.com/i/lK4pA</a>\r\n <a href=\"\nhttps://lensdump.com/i/lKKfM\" rel=\"nofollow\" target=\"_NEW\">\nhttps://lensdump.com/i/lKKfM</a>\r\n <a href=\"\nhttps://lensdump.com/i/lK70Q\" rel=\"nofollow\" target=\"_NEW\">\nhttps://lensdump.com/i/lK70Q</a>\r\n\r\n\r\nSource: DADDY\r\n\r\nNote: This is early CAM release. The video is cropped to trim the black tilted top right and bottom left corners. But, it still show up at times. Video is dark and blurry at times.\r\nAudio is clear, but with noise. \r\nI would suggest you to wait. \r\n\r\nVideo\r\nID                                       : 1\r\nFormat                                   : AVC\r\nFormat/Info                              : Advanced Video Codec\r\nFormat settings, CABAC                   : Yes\r\nFormat settings, ReFrames                : 4 frames\r\nCodec ID                                 : avc1\r\nCodec ID/Info                            : Advanced Video Coding\r\nDuration                                 : 1h 36mn\r\nBit rate                                 : 881 Kbps\r\nMaximum bit rate                         : 3 720 Kbps\r\nWidth                                    : 720 pixels\r\nHeight                                   : 288 pixels\r\nDisplay aspect ratio                     : 2.500\r\nFrame rate mode                          : Constant\r\nFrame rate                               : 29.970 fps\r\nColor space                              : YUV\r\nChroma subsampling                       : 4:2:0\r\nBit depth                                : 8 bits\r\nScan type                                : Progressive\r\nBits/(Pixel*Frame)                       : 0.142\r\nStream size                              : 611 MiB (94%)\r\n\r\nAudio\r\nID                                       : 2\r\nFormat                                   : AAC\r\nFormat/Info                              : Advanced Audio Codec\r\nFormat profile                           : LC\r\nCodec ID                                 : 40\r\nDuration                                 : 1h 36mn\r\nBit rate mode                            : Variable\r\nBit rate                                 : 52.6 Kbps\r\nMaximum bit rate                         : 64.0 Kbps\r\nChannel(s)                               : 2 channels\r\nChannel positions                        : Front: L R\r\nSampling rate                            : 44.1 KHz\r\nCompression mode                         : Lossy\r\nStream size                              : 36.4 MiB (6%)\r\nLanguage                                 : English","last_updated":"2018-01-02T12:03:19.279Z","parsed":{"xt":"urn:btih:96d4a425c03a79f63a759bf81f31b8b93f0112c6","dn":"The Greatest Showman 2017 HDCAM Full English AAC x264 - EiE","tr":["udp://exodus.desync.com:6969","udp://open.demonii.com:1337","udp://tracker.coppersurfer.tk:6969","udp://tracker.leechers-paradise.org:6969","udp://zer0day.ch:1337"],"infoHash":"96d4a425c03a79f63a759bf81f31b8b93f0112c6","infoHashBuffer":{"type":"Buffer","data":[150,212,164,37,192,58,121,246,58,117,155,248,31,49,184,185,63,1,18,198]},"name":"The Greatest Showman 2017 HDCAM Full English AAC x264 - EiE","announce":["udp://exodus.desync.com:6969","udp://open.demonii.com:1337","udp://tracker.coppersurfer.tk:6969","udp://tracker.leechers-paradise.org:6969","udp://zer0day.ch:1337"],"urlList":[]}}